<?xml version="1.0" encoding="iso-8859-1"?>
<!-- Generator: Adobe Illustrator 22.1.0, SVG Export Plug-In . SVG Version: 6.00 Build 0)  -->
<svg xmlns="http://www.w3.org/2000/svg" xmlns:xlink="http://www.w3.org/1999/xlink" version="1.1" id="Layer_1" x="0px" y="0px" viewBox="0 0 100 100" style="enable-background:new 0 0 100 100;" xml:space="preserve" width="100px" height="100px">
<rect x="41" y="35" style="fill:#FCBA7F;" width="18" height="32"/>
<polygon style="fill:#FEFDEF;" points="59,67 41,67 46.5,80 53.5,80 "/>
<polygon style="fill:#B3B2C3;" points="54,79 46,79 49,85.5 51,85.5 "/>
<rect x="41" y="27" style="fill:#B3B2C3;" width="18" height="8"/>
<path style="fill:#F15B6C;" d="M59,27H41v-6c0,0,2.5-3,9-3s9,3,9,3V27z"/>
<g>
	<path style="fill:#1F212B;" d="M50,86.936c-0.952,0-1.777-0.544-2.152-1.419l-7.767-18.123C40.027,67.27,40,67.135,40,67V21   c0-0.265,0.105-0.52,0.293-0.707C40.428,20.158,43.659,17,50,17s9.572,3.158,9.707,3.293C59.895,20.48,60,20.735,60,21v46   c0,0.135-0.027,0.27-0.081,0.394l-7.767,18.123C51.777,86.392,50.952,86.936,50,86.936z M42,66.795l7.686,17.934   c0.077,0.181,0.23,0.208,0.314,0.208s0.237-0.027,0.314-0.208L58,66.795V21.459C57.147,20.787,54.461,19,50,19   s-7.147,1.787-8,2.459V66.795z"/>
</g>
<g>
	<rect x="41" y="34" style="fill:#1F212B;" width="18" height="2"/>
</g>
<g>
	<rect x="41" y="66" style="fill:#1F212B;" width="18" height="2"/>
</g>
<g>
	<rect x="46" y="79" style="fill:#1F212B;" width="8" height="1"/>
</g>
<g>
	<path style="fill:#1F212B;" d="M59,28h-2.5c-0.276,0-0.5-0.224-0.5-0.5s0.224-0.5,0.5-0.5H59c0.276,0,0.5,0.224,0.5,0.5   S59.276,28,59,28z"/>
</g>
<g>
	<path style="fill:#1F212B;" d="M53.5,28H41c-0.276,0-0.5-0.224-0.5-0.5S40.724,27,41,27h12.5c0.276,0,0.5,0.224,0.5,0.5   S53.776,28,53.5,28z"/>
</g>
<g>
	<path style="fill:#1F212B;" d="M59,31H41c-0.276,0-0.5-0.224-0.5-0.5S40.724,30,41,30h18c0.276,0,0.5,0.224,0.5,0.5   S59.276,31,59,31z"/>
</g>
<g>
	<path style="fill:#1F212B;" d="M44.5,64c-0.276,0-0.5-0.224-0.5-0.5v-28c0-0.276,0.224-0.5,0.5-0.5s0.5,0.224,0.5,0.5v28   C45,63.776,44.776,64,44.5,64z"/>
</g>
<g>
	<path style="fill:#1F212B;" d="M47.5,67.5c-0.276,0-0.5-0.224-0.5-0.5V35.5c0-0.276,0.224-0.5,0.5-0.5s0.5,0.224,0.5,0.5V67   C48,67.276,47.776,67.5,47.5,67.5z"/>
</g>
<g>
	<path style="fill:#1F212B;" d="M52.5,67.5c-0.276,0-0.5-0.224-0.5-0.5V42.5c0-0.276,0.224-0.5,0.5-0.5s0.5,0.224,0.5,0.5V67   C53,67.276,52.776,67.5,52.5,67.5z"/>
</g>
<g>
	<path style="fill:#1F212B;" d="M52.5,40c-0.276,0-0.5-0.224-0.5-0.5V35c0-0.276,0.224-0.5,0.5-0.5S53,34.724,53,35v4.5   C53,39.776,52.776,40,52.5,40z"/>
</g>
<g>
	<path style="fill:#1F212B;" d="M55.5,56c-0.276,0-0.5-0.224-0.5-0.5V35c0-0.276,0.224-0.5,0.5-0.5S56,34.724,56,35v20.5   C56,55.776,55.776,56,55.5,56z"/>
</g>
<g>
	<path style="fill:#1F212B;" d="M55.5,60c-0.276,0-0.5-0.224-0.5-0.5v-1c0-0.276,0.224-0.5,0.5-0.5s0.5,0.224,0.5,0.5v1   C56,59.776,55.776,60,55.5,60z"/>
</g>
<g>
	<path style="fill:#1F212B;" d="M55.5,67.5c-0.276,0-0.5-0.224-0.5-0.5v-4.5c0-0.276,0.224-0.5,0.5-0.5s0.5,0.224,0.5,0.5V67   C56,67.276,55.776,67.5,55.5,67.5z"/>
</g>
</svg>
